<?xml version="1.0" encoding="UTF-8" standalone="no"?> <!-- Created with Vectornator for iOS (http://vectornator.io/) --><!DOCTYPE svg PUBLIC "-//W3C//DTD SVG 1.1//EN" "http://www.w3.org/Graphics/SVG/1.1/DTD/svg11.dtd">
<svg style="fill-rule:evenodd;clip-rule:evenodd;stroke-linecap:round;stroke-linejoin:round;" xmlns:vectornator="http://vectornator.io" xmlns:xlink="http://www.w3.org/1999/xlink" xmlns="http://www.w3.org/2000/svg" xml:space="preserve" version="1.1" viewBox="0 0 766 398">
<metadata>
<vectornator:setting key="DimensionsVisible" value="1"/>
<vectornator:setting key="SnapToGrid" value="0"/>
<vectornator:setting key="SnapToPoints" value="0"/>
<vectornator:setting key="GuidesVisible" value="1"/>
<vectornator:setting key="RulersVisible" value="1"/>
<vectornator:setting key="SnapToEdges" value="0"/>
<vectornator:setting key="DisplayWhiteBackground" value="0"/>
<vectornator:setting key="SnapToGuides" value="1"/>
<vectornator:setting key="GridSpacing" value="36"/>
<vectornator:setting key="Units" value="Pixels"/>
<vectornator:setting key="DynamicGuides" value="0"/>
<vectornator:setting key="New" value="1"/>
</metadata>
<defs/>
<g id="Layer 2" vectornator:layerName="Layer 2">
<path stroke="#040404" stroke-width="1" d="M555+101C569+101+569+101+583+101C583+184+583+184+583+267C601+267+601+267+619+267C619+284+619+284+619+301C606.5+301+606.5+301+594+301C588.309+329.453+605.625+350.125+611+377C606.734+374.867+604.468+371.405+603+367C599.026+368.987+601.343+380.301+600+385C596.759+375.276+593.219+365.656+590+356C584.442+358.779+587.882+366.706+581+369C581+359.085+572.055+323.211+586+326C586.437+318.573+585.482+308.591+587+301C570.5+301+570.5+301+554+301C554.5+201+554.5+201+555+101Z" fill="#040404" stroke-linecap="round" opacity="1" stroke-linejoin="round"/>
<path stroke="#0a0a0a" stroke-width="1" d="M513.938+98.3438C494.418+97.3242+474+115.57+474+139C474+180.668+474.369+222.337+475+264C475.117+271.698+478.587+283.381+483+290C508.163+327.745+543.808+292.767+543.978+261.002C544.133+232.257+546.418+167.247+546.418+167.247C546.418+167.247+548.537+128.805+538+113C531.508+103.262+522.81+98.8072+513.938+98.3438ZM510.469+133.719C514.229+133.456+518+136.457+518+143C518+181.335+517+219.665+517+258C517+268.272+504.207+274.515+504+262C503.35+222.671+503.251+183.334+503+144C502.959+137.508+506.708+133.982+510.469+133.719Z" fill="#0a0a0a" stroke-linecap="round" opacity="1" stroke-linejoin="round"/>
<path stroke="#0a0a0a" stroke-width="1" d="M469+161C455.5+161+455.5+161+442+161C442+154.667+442.264+148.328+442+142C441.712+135.096+430.53+126.881+428+137C425.316+147.737+452+195+452+195C452+195+489.056+252.259+463+287C420.645+343.474+399.318+272.273+398+238C412+237.5+412+237.5+426+237C426+293.096+446.216+266.972+440+239C430.162+194.727+387.561+184.976+400+129C406.02+101.912+434.136+88.8516+457+106C469.567+115.425+468.61+151.252+469+161Z" fill="#0a0a0a" stroke-linecap="round" opacity="1" stroke-linejoin="round"/>
<path stroke="#050505" stroke-width="1" d="M662.969+97.5625C648.093+96.9632+630.15+107.126+625+120C621.872+127.821+620+136.59+620+145C620+186.005+616.201+227.407+622+268C629.057+317.401+693+310.772+693+261C693+220+693+179+693+138C693+136.311+687.343+113.985+686.876+111.483C685.876+111.483+671.894+97.9221+662.969+97.5625ZM658.5+133.281C660.956+132.942+665.397+140.654+665.46+144.447C666.115+184.443+665.209+215.304+665.46+255.304C665.542+268.447+650.223+272.375+650+259C649.361+220.671+649+182.335+649+144C649+138.863+654.407+133.847+658.5+133.281Z" fill="#050505" stroke-linecap="round" opacity="1" stroke-linejoin="round"/>
<path stroke="#040404" stroke-width="1" d="M147+101C146.5+201+146.5+201+146+301C160.5+301+160.5+301+175+301C175.5+259.5+175.5+259.5+176+218C181.717+218.817+188.745+219.599+189+227C189.746+248.633+192+277.509+192+301C206.5+301+207.219+300.969+221.719+300.969C219.753+292.824+220.058+282.196+219.812+272.688C219.386+256.181+216+221+216+221C216+221+206.587+201.479+207+199C208.32+191.077+216.593+184.048+217+175C220.182+104.169+207.03+101+147+101ZM176+136C199.38+138.338+199.449+183+175+183C175.5+159.5+175.5+159.5+176+136Z" fill="#040404" stroke-linecap="round" opacity="1" stroke-linejoin="round"/>
<path stroke="#070707" stroke-width="1" d="M327+135C326.5+157+326.5+157+326+179C341+179+341+179+356+179C356+196.5+356+196.5+356+214C341.5+214+341.5+214+327+214C327+240+327+240+327+266C345.5+266.5+345.5+266.5+364+267C364+284+364+284+364+301C331+301+331+301+298+301C298+201+298+201+298+101C331+101+331+101+364+101C364+118+364+118+364+135C345.5+135+345.5+135+327+135Z" fill="#070707" stroke-linecap="round" opacity="1" stroke-linejoin="round"/>
<path stroke="#030303" stroke-width="1" d="M255+179C270+179.5+270+179.5+285+180C285+197+285+197+285+214C270.5+214+270.5+214+256+214C255.5+240.5+255.5+240.5+255+267C273.5+267+273.5+267+292+267C292+284+292+284+292+301C259+301+259+301+226+301C226+201.5+226+201.5+226+102C259+101.5+259+101.5+292+101C292+118+292+118+292+135C274+135+274+135+256+135C255.5+157+255.5+157+255+179Z" fill="#030303" stroke-linecap="round" opacity="1" stroke-linejoin="round"/>
<path stroke="#0a0a0a" stroke-width="1" d="M143+135C125.5+135+125.5+135+108+135C107.5+158.5+107.5+158.5+107+182C121+182+121+182+135+182C135+199.5+135+199.5+135+217C121.5+217+121.5+217+108+217C107.5+259+107.5+259+107+301C92.5+301+92.5+301+78+301C78+201+78+201+78+101C110.5+101+110.5+101+143+101C143+118+143+118+143+135Z" fill="#0a0a0a" stroke-linecap="round" opacity="1" stroke-linejoin="round"/>
<path stroke="#111111" stroke-width="1" d="M386+350C389.409+343.181+385.006+340.002+379+338C410.737+274.527+449.092+381.546+386+350Z" fill="#111111" stroke-linecap="round" opacity="1" stroke-linejoin="round"/>
<path stroke="#131313" stroke-width="1" d="M217+63C236.903+63.3544+217.652+91.3697+206+87C186.867+79.825+212.059+62.912+217+63Z" fill="#131313" stroke-linecap="round" opacity="1" stroke-linejoin="round"/>
<path stroke="#1d1d1d" stroke-width="1" d="M204+331C192.33+329.703+197.994+330.374+187+329C187+312.252+217.514+327.476+207+345C197.125+361.459+180.007+332.058+189+331C193.966+330.416+199+331+204+331Z" fill="#1d1d1d" stroke-linecap="round" opacity="1" stroke-linejoin="round"/>
<path stroke="#1b1b1b" stroke-width="1" d="M52+239C55.5339+238.485+57.0243+242.016+60+244C85.393+260.929+21.6198+266.38+44+244C48.9484+239.052+46.9311+239.739+52+239Z" fill="#1b1b1b" stroke-linecap="round" opacity="1" stroke-linejoin="round"/>
<path stroke="#202020" stroke-width="1" d="M729+171C733.169+169.381+740.123+172.615+741+177C747.611+210.054+695.867+183.864+729+171Z" fill="#202020" stroke-linecap="round" opacity="1" stroke-linejoin="round"/>
<path stroke="#050505" stroke-width="1" d="M489+42C489+39.5326+488.093+38.1855+487+36C506.678+16.3217+511.977+49.6589+489+42Z" fill="#050505" stroke-linecap="round" opacity="1" stroke-linejoin="round"/>
<path stroke="#121212" stroke-width="1" d="M414+83C414+86+414+86+414+89C415+89+415+89+416+89C416+97.6689+415.806+94.3883+413+100C398.701+97.9572+402.226+83+414+83Z" fill="#121212" stroke-linecap="round" opacity="1" stroke-linejoin="round"/>
<path stroke="#252525" stroke-width="1" d="M711+278C713.065+284.196+721.552+297+708+297C708+288.05+706.009+285.486+711+278Z" fill="#252525" stroke-linecap="round" opacity="1" stroke-linejoin="round"/>
<path stroke="#050505" stroke-width="1" d="M577.32+320.863C569.846+319.07+574.503+333.27+580.753+330.095C588.748+327.522+583.669+315.891+576.581+316.635C571.302+316.889+567.508+324.607+571.78+328.37C575.448+331.515+582.562+329.801+583.256+324.689C579.695+309.54+562.959+329.399+578.628+330.819C574.484+318.602+580.137+328.039+577.32+320.863" fill="#050505" stroke-linecap="round" opacity="1" stroke-linejoin="round"/>
<path stroke="#050505" stroke-width="1" d="M708.575+288.148C708.084+279.469+695.781+290.567+702.841+294.964C714.098+289.599+708.866+292.183+713.052+282.279C704.67+278.873+706.79+291.348+714.257+292.558C725.21+283.609+705.6+277.165+702.886+288.554C707.772+295.243+705.621+290.518+708.575+288.148" fill="#050505" stroke-linecap="round" opacity="1" stroke-linejoin="round"/>
<path stroke="#050505" stroke-width="1" d="M705.693+292.014C700.676+302.996+717.326+288.448+705.693+292.014" fill="#050505" stroke-linecap="round" opacity="1" stroke-linejoin="round"/>
<path stroke="#050505" stroke-width="1" d="M703.814+293.447C704.253+305.746+713.117+285.262+703.814+293.447" fill="#050505" stroke-linecap="round" opacity="1" stroke-linejoin="round"/>
<path stroke="#050505" stroke-width="1" d="M711.422+281.044C697.657+274.264+704.117+298.063+711.422+281.044" fill="#050505" stroke-linecap="round" opacity="1" stroke-linejoin="round"/>
<path stroke="#050505" stroke-width="1" d="M413.925+86.4515C396.367+107.868+426.055+98.1355+413.925+86.4515" fill="#050505" stroke-linecap="round" opacity="1" stroke-linejoin="round"/>
<path stroke="#050505" stroke-width="1" d="M413.949+85.5112C417.696+107.759+430.039+84.1349+413.949+85.5112" fill="#050505" stroke-linecap="round" opacity="1" stroke-linejoin="round"/>
</g>
</svg>
